<?xml version="1.0" encoding="us-ascii" standalone="no"?><svg xmlns="http://www.w3.org/2000/svg" xmlns:xlink="http://www.w3.org/1999/xlink" contentStyleType="text/css" height="1104px" preserveAspectRatio="none" style="width:802px;height:1104px;background:#FFFFFF;" version="1.1" viewBox="0 0 802 1104" width="802px" zoomAndPan="magnify"><defs/><g><ellipse cx="528" cy="16" fill="#222222" rx="10" ry="10" style="stroke:#222222;stroke-width:1.0;"/><rect fill="#F1F1F1" height="40" rx="12.5" ry="12.5" style="stroke:#181818;stroke-width:0.5;" width="104" x="370" y="120"/><text fill="#000000" font-family="sans-serif" font-size="14" lengthAdjust="spacing" textLength="94" x="375" y="145.7285">AutoDetectado</text><rect fill="#F1F1F1" height="40" rx="12.5" ry="12.5" style="stroke:#181818;stroke-width:0.5;" width="112" x="579" y="195.5"/><text fill="#000000" font-family="sans-serif" font-size="14" lengthAdjust="spacing" textLength="102" x="584" y="221.2285">AutoConfirmado</text><rect fill="#F1F1F1" height="40" rx="12.5" ry="12.5" style="stroke:#181818;stroke-width:0.5;" width="128" x="215" y="276.5"/><text fill="#000000" font-family="sans-serif" font-size="14" lengthAdjust="spacing" textLength="118" x="220" y="302.2285">PendienteRevision</text><rect fill="#F1F1F1" height="40" rx="12.5" ry="12.5" style="stroke:#181818;stroke-width:0.5;" width="132" x="263" y="433"/><text fill="#000000" font-family="sans-serif" font-size="14" lengthAdjust="spacing" textLength="122" x="268" y="458.7285">BloqueadoRevision</text><rect fill="#F1F1F1" height="40" rx="12.5" ry="12.5" style="stroke:#181818;stroke-width:0.5;" width="128" x="7" y="503"/><text fill="#000000" font-family="sans-serif" font-size="14" lengthAdjust="spacing" textLength="118" x="12" y="528.7285">EventoSinRevision</text><rect fill="#F1F1F1" height="40" rx="12.5" ry="12.5" style="stroke:#181818;stroke-width:0.5;" width="83" x="302.5" y="707"/><text fill="#000000" font-family="sans-serif" font-size="14" lengthAdjust="spacing" textLength="73" x="307.5" y="732.7285">Confirmado</text><rect fill="#F1F1F1" height="40" rx="12.5" ry="12.5" style="stroke:#181818;stroke-width:0.5;" width="81" x="158.5" y="707"/><text fill="#000000" font-family="sans-serif" font-size="14" lengthAdjust="spacing" textLength="71" x="163.5" y="732.7285">Rechazado</text><rect fill="#F1F1F1" height="40" rx="12.5" ry="12.5" style="stroke:#181818;stroke-width:0.5;" width="115" x="271.5" y="573"/><text fill="#000000" font-family="sans-serif" font-size="14" lengthAdjust="spacing" textLength="105" x="276.5" y="598.7285">DerivadoExperto</text><rect fill="#F1F1F1" height="40" rx="12.5" ry="12.5" style="stroke:#181818;stroke-width:0.5;" width="113" x="323.5" y="841"/><text fill="#000000" font-family="sans-serif" font-size="14" lengthAdjust="spacing" textLength="103" x="328.5" y="866.7285">PendienteCierre</text><rect fill="#F1F1F1" height="40" rx="12.5" ry="12.5" style="stroke:#181818;stroke-width:0.5;" width="62" x="336" y="975"/><text fill="#000000" font-family="sans-serif" font-size="14" lengthAdjust="spacing" textLength="52" x="341" y="1000.7285">Cerrado</text><ellipse cx="234" cy="1087" fill="none" rx="11" ry="11" style="stroke:#222222;stroke-width:1.0;"/><ellipse cx="234" cy="1087" fill="#222222" rx="6" ry="6" style="stroke:#222222;stroke-width:1.0;"/><!--link *start* to AutoDetectado--><g id="link_*start*_AutoDetectado"><path d="M517.96,17.06 C495.65,17.82 442.15,23.14 419,56 C405.96,74.51 408.4261,95.7539 413.5261,113.8939 " fill="none" id="*start*-to-AutoDetectado" style="stroke:#181818;stroke-width:1.0;"/><polygon fill="#181818" points="415.15,119.67,416.5648,109.9233,413.7967,114.8566,408.8634,112.0885,415.15,119.67" style="stroke:#181818;stroke-width:1.0;"/><text fill="#000000" font-family="sans-serif" font-size="13" lengthAdjust="spacing" textLength="18" x="494.5" y="70.4951">24.</text><text fill="#000000" font-family="sans-serif" font-size="13" lengthAdjust="spacing" textLength="167" x="424" y="86.8467">new() [magnitudSismo &lt; 4.0]</text></g><!--link *start* to AutoConfirmado--><g id="link_*start*_AutoConfirmado"><path d="M537.54,19.77 C552.4,24.6 580.93,36 596,56 C627.89,98.32 633.8163,157.3928 634.7963,189.3928 " fill="none" id="*start*-to-AutoConfirmado" style="stroke:#181818;stroke-width:1.0;"/><polygon fill="#181818" points="634.98,195.39,638.7026,186.2718,634.8269,190.3923,630.7064,186.5167,634.98,195.39" style="stroke:#181818;stroke-width:1.0;"/><text fill="#000000" font-family="sans-serif" font-size="13" lengthAdjust="spacing" textLength="18" x="693.5" y="70.4951">24.</text><text fill="#000000" font-family="sans-serif" font-size="13" lengthAdjust="spacing" textLength="175" x="619" y="86.8467">new() [magnitudSismo &gt;= 4.0]</text></g><!--link AutoDetectado to PendienteRevision--><g id="link_AutoDetectado_PendienteRevision"><path d="M369.69,148.84 C343.7,155.46 314.08,167.64 296,190 C276.06,214.67 274.7516,247.4746 276.3616,270.5046 " fill="none" id="AutoDetectado-to-PendienteRevision" style="stroke:#181818;stroke-width:1.0;"/><polygon fill="#181818" points="276.78,276.49,280.1426,267.233,276.4313,271.5022,272.1621,267.7909,276.78,276.49" style="stroke:#181818;stroke-width:1.0;"/><text fill="#000000" font-family="sans-serif" font-size="13" lengthAdjust="spacing" textLength="18" x="350" y="204.4951">25.</text><text fill="#000000" font-family="sans-serif" font-size="13" lengthAdjust="spacing" textLength="45" x="338.5" y="220.8467">revisar()</text><text fill="#000000" font-family="sans-serif" font-size="13" lengthAdjust="spacing" textLength="124" x="301" y="237.1982">[tiempoEspera=5min]</text></g><!--link PendienteRevision to BloqueadoRevision--><g id="link_PendienteRevision_BloqueadoRevision"><path d="M273.72,316.72 C268.75,338.61 263.74,374.96 276,403 C281.12,414.71 285.9818,421.0156 295.5018,428.9956 " fill="none" id="PendienteRevision-to-BloqueadoRevision" style="stroke:#181818;stroke-width:1.0;"/><polygon fill="#181818" points="300.1,432.85,295.7723,424.0029,296.2681,429.638,290.6331,430.1339,300.1,432.85" style="stroke:#181818;stroke-width:1.0;"/><text fill="#000000" font-family="sans-serif" font-size="13" lengthAdjust="spacing" textLength="14" x="342" y="366.4951">25</text><text fill="#000000" font-family="sans-serif" font-size="13" lengthAdjust="spacing" textLength="140" x="281" y="382.8467">bloquear() [revisionSi=Si</text><text fill="#000000" font-family="sans-serif" font-size="13" lengthAdjust="spacing" textLength="133" x="286.5" y="399.1982">&amp; tiempoEspera&lt;5min]</text></g><!--link PendienteRevision to EventoSinRevision--><g id="link_PendienteRevision_EventoSinRevision"><path d="M214.98,298.4 C172.67,302.64 119.56,315.6 89,352 C52.64,395.3 59.3429,462.3893 65.7029,496.9093 " fill="none" id="PendienteRevision-to-EventoSinRevision" style="stroke:#181818;stroke-width:1.0;"/><polygon fill="#181818" points="66.79,502.81,69.0931,493.2342,65.884,497.8928,61.2255,494.6837,66.79,502.81" style="stroke:#181818;stroke-width:1.0;"/><text fill="#000000" font-family="sans-serif" font-size="13" lengthAdjust="spacing" textLength="166" x="90" y="374.9951">27. bloquear() [revisionSi=No</text><text fill="#000000" font-family="sans-serif" font-size="13" lengthAdjust="spacing" textLength="133" x="110.5" y="391.3467">&amp; tiempoEspera=5min]</text></g><!--link AutoDetectado to BloqueadoRevision--><g id="link_AutoDetectado_BloqueadoRevision"><path d="M429.31,160.31 C445.44,206.42 478.91,324.9 430,403 C421.78,416.13 414.2506,423.076 400.4306,430.216 " fill="none" id="AutoDetectado-to-BloqueadoRevision" style="stroke:#181818;stroke-width:1.0;"/><polygon fill="#181818" points="395.1,432.97,404.9319,432.3927,399.5422,430.675,401.2599,425.2852,395.1,432.97" style="stroke:#181818;stroke-width:1.0;"/><text fill="#000000" font-family="sans-serif" font-size="13" lengthAdjust="spacing" textLength="18" x="509" y="285.4951">25.</text><text fill="#000000" font-family="sans-serif" font-size="13" lengthAdjust="spacing" textLength="45" x="497.5" y="301.8467">revisar()</text><text fill="#000000" font-family="sans-serif" font-size="13" lengthAdjust="spacing" textLength="124" x="460" y="318.1982">[tiempoEspera&lt;5min]</text></g><!--link BloqueadoRevision to Confirmado--><g id="link_BloqueadoRevision_Confirmado"><path d="M357.33,473.11 C367.99,481.35 379.56,491.69 388,503 C428.5,557.25 434.39,576.69 448,643 C451.04,657.8 456.09,664.24 448,677 C434.32,698.57 414.0609,709.0759 391.4809,715.9359 " fill="none" id="BloqueadoRevision-to-Confirmado" style="stroke:#181818;stroke-width:1.0;"/><polygon fill="#181818" points="385.74,717.68,395.5141,718.8911,390.5241,716.2266,393.1886,711.2365,385.74,717.68" style="stroke:#181818;stroke-width:1.0;"/><text fill="#000000" font-family="sans-serif" font-size="13" lengthAdjust="spacing" textLength="18" x="487" y="590.4951">23.</text><text fill="#000000" font-family="sans-serif" font-size="13" lengthAdjust="spacing" textLength="102" x="447" y="606.8467">confirmarDirecto()</text></g><!--link BloqueadoRevision to Rechazado--><g id="link_BloqueadoRevision_Rechazado"><path d="M292.39,473.11 C258.71,492.98 210.92,527.55 190,573 C169.64,617.23 181.2267,670.675 190.4967,700.825 " fill="none" id="BloqueadoRevision-to-Rechazado" style="stroke:#181818;stroke-width:1.0;"/><polygon fill="#181818" points="192.26,706.56,193.4384,696.7819,190.7906,701.7808,185.7917,699.133,192.26,706.56" style="stroke:#181818;stroke-width:1.0;"/><text fill="#000000" font-family="sans-serif" font-size="13" lengthAdjust="spacing" textLength="18" x="213" y="590.4951">23.</text><text fill="#000000" font-family="sans-serif" font-size="13" lengthAdjust="spacing" textLength="58" x="195" y="606.8467">rechazar()</text></g><!--link BloqueadoRevision to DerivadoExperto--><g id="link_BloqueadoRevision_DerivadoExperto"><path d="M329,473.19 C329,499.55 329,540.7 329,566.97 " fill="none" id="BloqueadoRevision-to-DerivadoExperto" style="stroke:#181818;stroke-width:1.0;"/><polygon fill="#181818" points="329,572.97,333,563.97,329,567.97,325,563.97,329,572.97" style="stroke:#181818;stroke-width:1.0;"/><text fill="#000000" font-family="sans-serif" font-size="13" lengthAdjust="spacing" textLength="18" x="345.5" y="520.4951">23.</text><text fill="#000000" font-family="sans-serif" font-size="13" lengthAdjust="spacing" textLength="45" x="334" y="536.8467">derivar()</text></g><!--link DerivadoExperto to Confirmado--><g id="link_DerivadoExperto_Confirmado"><path d="M326.93,613.25 C325.56,630.16 324.56,655.37 328,677 C329.6,687.08 330.9107,692.2472 334.1307,701.1572 " fill="none" id="DerivadoExperto-to-Confirmado" style="stroke:#181818;stroke-width:1.0;"/><polygon fill="#181818" points="336.17,706.8,336.873,696.9763,334.4706,702.0977,329.3492,699.6953,336.17,706.8" style="stroke:#181818;stroke-width:1.0;"/><text fill="#000000" font-family="sans-serif" font-size="13" lengthAdjust="spacing" textLength="18" x="375" y="657.4951">67.</text><text fill="#000000" font-family="sans-serif" font-size="13" lengthAdjust="spacing" textLength="110" x="333" y="673.8467">confirmarDerivado()</text></g><!--link DerivadoExperto to Rechazado--><g id="link_DerivadoExperto_Rechazado"><path d="M293.59,613.02 C280.28,621.18 265.59,631.49 254,643 C234.75,662.13 221.284,683.7377 211.544,701.6677 " fill="none" id="DerivadoExperto-to-Rechazado" style="stroke:#181818;stroke-width:1.0;"/><polygon fill="#181818" points="208.68,706.94,216.4909,700.9409,211.0667,702.5464,209.4612,697.1222,208.68,706.94" style="stroke:#181818;stroke-width:1.0;"/><text fill="#000000" font-family="sans-serif" font-size="13" lengthAdjust="spacing" textLength="18" x="275" y="657.4951">67.</text><text fill="#000000" font-family="sans-serif" font-size="13" lengthAdjust="spacing" textLength="58" x="259" y="673.8467">rechazar()</text></g><!--link Confirmado to PendienteCierre--><g id="link_Confirmado_PendienteCierre"><path d="M349.23,747.19 C356.06,772.22 366.3505,809.9616 373.1805,834.9916 " fill="none" id="Confirmado-to-PendienteCierre" style="stroke:#181818;stroke-width:1.0;"/><polygon fill="#181818" points="374.76,840.78,376.2497,831.0445,373.4438,835.9564,368.5319,833.1504,374.76,840.78" style="stroke:#181818;stroke-width:1.0;"/><text fill="#000000" font-family="sans-serif" font-size="13" lengthAdjust="spacing" textLength="18" x="408.5" y="791.4951">23.</text><text fill="#000000" font-family="sans-serif" font-size="13" lengthAdjust="spacing" textLength="99" x="372" y="807.8467">pendienteCerrar()</text></g><!--link AutoConfirmado to PendienteCierre--><g id="link_AutoConfirmado_PendienteCierre"><path d="M635,235.71 C635,265.75 635,325.67 635,376.5 C635,376.5 635,376.5 635,728 C635,816.73 517.6723,845.135 442.5423,854.665 " fill="none" id="AutoConfirmado-to-PendienteCierre" style="stroke:#181818;stroke-width:1.0;"/><polygon fill="#181818" points="436.59,855.42,446.0218,858.2557,441.5503,854.7908,445.0151,850.3193,436.59,855.42" style="stroke:#181818;stroke-width:1.0;"/><text fill="#000000" font-family="sans-serif" font-size="13" lengthAdjust="spacing" textLength="18" x="678.5" y="520.4951">24.</text><text fill="#000000" font-family="sans-serif" font-size="13" lengthAdjust="spacing" textLength="99" x="640" y="536.8467">pendienteCerrar()</text></g><!--link PendienteCierre to Cerrado--><g id="link_PendienteCierre_Cerrado"><path d="M378.11,881.19 C375.64,906.22 371.9492,943.779 369.4792,968.809 " fill="none" id="PendienteCierre-to-Cerrado" style="stroke:#181818;stroke-width:1.0;"/><polygon fill="#181818" points="368.89,974.78,373.7545,966.2163,369.381,969.8042,365.7932,965.4307,368.89,974.78" style="stroke:#181818;stroke-width:1.0;"/><text fill="#000000" font-family="sans-serif" font-size="13" lengthAdjust="spacing" textLength="18" x="388.5" y="925.4951">39.</text><text fill="#000000" font-family="sans-serif" font-size="13" lengthAdjust="spacing" textLength="41" x="381" y="941.8467">cerrar()</text></g><!--link Cerrado to *end*--><g id="link_Cerrado_*end*"><path d="M340.54,1015.01 C327.26,1024.46 310.88,1035.97 296,1046 C277.31,1058.6 260.0845,1069.5786 247.9745,1077.2186 " fill="none" id="Cerrado-to-*end*" style="stroke:#181818;stroke-width:1.0;"/><polygon fill="#181818" points="242.9,1080.42,252.6461,1079.0009,247.1288,1077.7521,248.3775,1072.2348,242.9,1080.42" style="stroke:#181818;stroke-width:1.0;"/></g><!--link EventoSinRevision to *end*--><g id="link_EventoSinRevision_*end*"><path d="M72.62,543.21 C74.69,569.38 78,617.69 78,659 C78,659 78,659 78,996 C78,1062.91 181.0487,1080.17 216.8187,1084.25 " fill="none" id="EventoSinRevision-to-*end*" style="stroke:#181818;stroke-width:1.0;"/><polygon fill="#181818" points="222.78,1084.93,214.2913,1079.9358,217.8122,1084.3634,213.3847,1087.8843,222.78,1084.93" style="stroke:#181818;stroke-width:1.0;"/></g><!--link Confirmado to *end*--><g id="link_Confirmado_*end*"><path d="M337.26,747.1 C329.43,769.5 316.28,807.78 306,841 C278.01,931.46 276.54,955.72 248,1046 C244.67,1056.52 242.4938,1062.8125 239.5538,1070.8825 " fill="none" id="Confirmado-to-*end*" style="stroke:#181818;stroke-width:1.0;"/><polygon fill="#181818" points="237.5,1076.52,244.3391,1069.4329,239.2115,1071.8221,236.8224,1066.6945,237.5,1076.52" style="stroke:#181818;stroke-width:1.0;"/></g><!--link Rechazado to *end*--><g id="link_Rechazado_*end*"><path d="M200.88,747.25 C207.3,812.89 227.6162,1020.6685 232.4262,1069.8685 " fill="none" id="Rechazado-to-*end*" style="stroke:#181818;stroke-width:1.0;"/><polygon fill="#181818" points="233.01,1075.84,236.1153,1066.4935,232.5235,1070.8637,228.1533,1067.2719,233.01,1075.84" style="stroke:#181818;stroke-width:1.0;"/></g><!--SRC=[ZPFDJkim48NtUOfPNU1AHAW_52AA16sN8DHATrEwCCa08pLsh-tq0k_4YaVWnUxO-MdQ6i4oC-SxFZEndob3m7nbNo53asfQML8oEXW9emoNe30gYGuwtGIc-4J6Qg51eocMLcJA2JIkoT3dXuHSo48iMTnhYt6DqYemd-ycfrHnkv_0ZSheaT9WUv30bIoMeLxtB84_gBTGq_GDYCAwJ1PJbyumS9x027Kmn-dW1pEv3SY69OzoKTEQfL4q_xquFhwyucF7zQcGGASNmxq4YVyEZs2UYoT9jiXcJ2kuW5vyicY18oKVIUVVavV34jqwZKtkK6R4-N3gKol9Fj3fUoC_YD1inXzpI_odrSIiK8jXFoUvW6YFPiVhfVfR8BlNDGxMTmuFPSFvpNNLcz5mHgxv2zh-5zu_Q3_nsvoHRDaFug_CRzM-UHb-UnF0pX1C_iqcggHxAFjj_WtxT6CcqwgYnwJvN7Lu50Idc3wBDyzLe2uh-WjWN5sfoGj7iXkil6gEsb7if3iT-2atyIfr46obgxXMkerh-swDY5yH-Yqu_Qgf-yV5sFPL3gAzE4Zk2Fr_z4sNhtjUpbMBguONyHkAzkvIqsczgxhKp5rN_WC0]--></g></svg>