<?xml version="1.0" encoding="us-ascii" standalone="no"?><svg xmlns="http://www.w3.org/2000/svg" xmlns:xlink="http://www.w3.org/1999/xlink" contentStyleType="text/css" height="1104px" preserveAspectRatio="none" style="width:711px;height:1104px;background:#FFFFFF;" version="1.1" viewBox="0 0 711 1104" width="711px" zoomAndPan="magnify"><defs/><g><ellipse cx="437.59" cy="16" fill="#222222" rx="10" ry="10" style="stroke:#222222;stroke-width:1.0;"/><rect fill="#F1F1F1" height="40" rx="12.5" ry="12.5" style="stroke:#181818;stroke-width:0.5;" width="104" x="279.59" y="120"/><text fill="#000000" font-family="sans-serif" font-size="14" lengthAdjust="spacing" textLength="94" x="284.59" y="145.7285">AutoDetectado</text><rect fill="#F1F1F1" height="40" rx="12.5" ry="12.5" style="stroke:#181818;stroke-width:0.5;" width="112" x="488.59" y="195.5"/><text fill="#000000" font-family="sans-serif" font-size="14" lengthAdjust="spacing" textLength="102" x="493.59" y="221.2285">AutoConfirmado</text><rect fill="#F1F1F1" height="40" rx="12.5" ry="12.5" style="stroke:#181818;stroke-width:0.5;" width="128" x="267.59" y="276.5"/><text fill="#000000" font-family="sans-serif" font-size="14" lengthAdjust="spacing" textLength="118" x="272.59" y="302.2285">PendienteRevision</text><rect fill="#F1F1F1" height="40" rx="12.5" ry="12.5" style="stroke:#181818;stroke-width:0.5;" width="132" x="94.59" y="433"/><text fill="#000000" font-family="sans-serif" font-size="14" lengthAdjust="spacing" textLength="122" x="99.59" y="458.7285">BloqueadoRevision</text><rect fill="#F1F1F1" height="40" rx="12.5" ry="12.5" style="stroke:#181818;stroke-width:0.5;" width="128" x="354.59" y="503"/><text fill="#000000" font-family="sans-serif" font-size="14" lengthAdjust="spacing" textLength="118" x="359.59" y="528.7285">EventoSinRevision</text><rect fill="#F1F1F1" height="40" rx="12.5" ry="12.5" style="stroke:#181818;stroke-width:0.5;" width="83" x="264.09" y="707"/><text fill="#000000" font-family="sans-serif" font-size="14" lengthAdjust="spacing" textLength="73" x="269.09" y="732.7285">Confirmado</text><rect fill="#F1F1F1" height="40" rx="12.5" ry="12.5" style="stroke:#181818;stroke-width:0.5;" width="81" x="26.09" y="707"/><text fill="#000000" font-family="sans-serif" font-size="14" lengthAdjust="spacing" textLength="71" x="31.09" y="732.7285">Rechazado</text><rect fill="#F1F1F1" height="40" rx="12.5" ry="12.5" style="stroke:#181818;stroke-width:0.5;" width="115" x="108.09" y="573"/><text fill="#000000" font-family="sans-serif" font-size="14" lengthAdjust="spacing" textLength="105" x="113.09" y="598.7285">DerivadoExperto</text><rect fill="#F1F1F1" height="40" rx="12.5" ry="12.5" style="stroke:#181818;stroke-width:0.5;" width="113" x="277.09" y="841"/><text fill="#000000" font-family="sans-serif" font-size="14" lengthAdjust="spacing" textLength="103" x="282.09" y="866.7285">PendienteCierre</text><rect fill="#F1F1F1" height="40" rx="12.5" ry="12.5" style="stroke:#181818;stroke-width:0.5;" width="62" x="302.59" y="975"/><text fill="#000000" font-family="sans-serif" font-size="14" lengthAdjust="spacing" textLength="52" x="307.59" y="1000.7285">Cerrado</text><ellipse cx="333.59" cy="1087" fill="none" rx="11" ry="11" style="stroke:#222222;stroke-width:1.0;"/><ellipse cx="333.59" cy="1087" fill="#222222" rx="6" ry="6" style="stroke:#222222;stroke-width:1.0;"/><!--link *start* to AutoDetectado--><g id="link_*start*_AutoDetectado"><path d="M427.55,17.06 C405.24,17.82 351.74,23.14 328.59,56 C315.56,74.51 318.0161,95.7539 323.1161,113.8939 " fill="none" id="*start*-to-AutoDetectado" style="stroke:#181818;stroke-width:1.0;"/><polygon fill="#181818" points="324.74,119.67,326.1548,109.9233,323.3867,114.8566,318.4534,112.0885,324.74,119.67" style="stroke:#181818;stroke-width:1.0;"/><text fill="#000000" font-family="sans-serif" font-size="13" lengthAdjust="spacing" textLength="18" x="404.09" y="70.4951">24.</text><text fill="#000000" font-family="sans-serif" font-size="13" lengthAdjust="spacing" textLength="167" x="333.59" y="86.8467">new() [magnitudSismo &lt; 4.0]</text></g><!--link *start* to AutoConfirmado--><g id="link_*start*_AutoConfirmado"><path d="M447.13,19.77 C461.99,24.6 490.52,36 505.59,56 C537.48,98.32 543.4063,157.3928 544.3863,189.3928 " fill="none" id="*start*-to-AutoConfirmado" style="stroke:#181818;stroke-width:1.0;"/><polygon fill="#181818" points="544.57,195.39,548.2926,186.2718,544.4169,190.3923,540.2964,186.5167,544.57,195.39" style="stroke:#181818;stroke-width:1.0;"/><text fill="#000000" font-family="sans-serif" font-size="13" lengthAdjust="spacing" textLength="18" x="603.09" y="70.4951">24.</text><text fill="#000000" font-family="sans-serif" font-size="13" lengthAdjust="spacing" textLength="175" x="528.59" y="86.8467">new() [magnitudSismo &gt;= 4.0]</text></g><!--link AutoDetectado to PendienteRevision--><g id="link_AutoDetectado_PendienteRevision"><path d="M331.59,160.26 C331.59,190.02 331.59,240.87 331.59,270.49 " fill="none" id="AutoDetectado-to-PendienteRevision" style="stroke:#181818;stroke-width:1.0;"/><polygon fill="#181818" points="331.59,276.49,335.59,267.49,331.59,271.49,327.59,267.49,331.59,276.49" style="stroke:#181818;stroke-width:1.0;"/><text fill="#000000" font-family="sans-serif" font-size="13" lengthAdjust="spacing" textLength="18" x="385.59" y="204.4951">25.</text><text fill="#000000" font-family="sans-serif" font-size="13" lengthAdjust="spacing" textLength="45" x="374.09" y="220.8467">revisar()</text><text fill="#000000" font-family="sans-serif" font-size="13" lengthAdjust="spacing" textLength="124" x="336.59" y="237.1982">[tiempoEspera=5min]</text></g><!--link PendienteRevision to BloqueadoRevision--><g id="link_PendienteRevision_BloqueadoRevision"><path d="M267.15,315.75 C219.06,329.68 161.07,347.26 157.59,352 C140.42,375.38 145.1921,405.0672 151.7921,426.8772 " fill="none" id="PendienteRevision-to-BloqueadoRevision" style="stroke:#181818;stroke-width:1.0;"/><polygon fill="#181818" points="153.53,432.62,154.7518,422.8472,152.0818,427.8343,147.0947,425.1644,153.53,432.62" style="stroke:#181818;stroke-width:1.0;"/><text fill="#000000" font-family="sans-serif" font-size="13" lengthAdjust="spacing" textLength="14" x="223.59" y="366.4951">25</text><text fill="#000000" font-family="sans-serif" font-size="13" lengthAdjust="spacing" textLength="140" x="162.59" y="382.8467">bloquear() [revisionSi=Si</text><text fill="#000000" font-family="sans-serif" font-size="13" lengthAdjust="spacing" textLength="133" x="168.09" y="399.1982">&amp; tiempoEspera&lt;5min]</text></g><!--link PendienteRevision to EventoSinRevision--><g id="link_PendienteRevision_EventoSinRevision"><path d="M332.28,316.72 C333.57,338.29 337.21,374.05 347.59,403 C361.23,441.05 384.0008,475.565 400.4808,498.125 " fill="none" id="PendienteRevision-to-EventoSinRevision" style="stroke:#181818;stroke-width:1.0;"/><polygon fill="#181818" points="404.02,502.97,401.9411,493.343,401.0706,498.9325,395.4812,498.062,404.02,502.97" style="stroke:#181818;stroke-width:1.0;"/><text fill="#000000" font-family="sans-serif" font-size="13" lengthAdjust="spacing" textLength="166" x="348.59" y="374.9951">27. bloquear() [revisionSi=No</text><text fill="#000000" font-family="sans-serif" font-size="13" lengthAdjust="spacing" textLength="133" x="369.09" y="391.3467">&amp; tiempoEspera=5min]</text></g><!--link AutoDetectado to BloqueadoRevision--><g id="link_AutoDetectado_BloqueadoRevision"><path d="M279.46,156.6 C228.65,174.92 154.26,210.71 120.59,271 C90.78,324.39 124.1551,393.0898 144.9451,427.6198 " fill="none" id="AutoDetectado-to-BloqueadoRevision" style="stroke:#181818;stroke-width:1.0;"/><polygon fill="#181818" points="148.04,432.76,146.8245,422.9864,145.461,428.4765,139.9709,427.1129,148.04,432.76" style="stroke:#181818;stroke-width:1.0;"/><text fill="#000000" font-family="sans-serif" font-size="13" lengthAdjust="spacing" textLength="18" x="174.59" y="285.4951">25.</text><text fill="#000000" font-family="sans-serif" font-size="13" lengthAdjust="spacing" textLength="45" x="163.09" y="301.8467">revisar()</text><text fill="#000000" font-family="sans-serif" font-size="13" lengthAdjust="spacing" textLength="124" x="125.59" y="318.1982">[tiempoEspera&lt;5min]</text></g><!--link BloqueadoRevision to Confirmado--><g id="link_BloqueadoRevision_Confirmado"><path d="M191.07,473.12 C202.34,481.3 214.56,491.59 223.59,503 C274.26,567.06 294.5874,659.5061 301.6574,700.7961 " fill="none" id="BloqueadoRevision-to-Confirmado" style="stroke:#181818;stroke-width:1.0;"/><polygon fill="#181818" points="302.67,706.71,305.0937,697.164,301.8261,701.7817,297.2084,698.5142,302.67,706.71" style="stroke:#181818;stroke-width:1.0;"/><text fill="#000000" font-family="sans-serif" font-size="13" lengthAdjust="spacing" textLength="18" x="323.59" y="590.4951">23.</text><text fill="#000000" font-family="sans-serif" font-size="13" lengthAdjust="spacing" textLength="102" x="283.59" y="606.8467">confirmarDirecto()</text></g><!--link BloqueadoRevision to Rechazado--><g id="link_BloqueadoRevision_Rechazado"><path d="M125.88,473.06 C93.35,493.12 46.8,528.02 26.59,573 C6,618.83 32.1284,672.2205 50.4984,701.8505 " fill="none" id="BloqueadoRevision-to-Rechazado" style="stroke:#181818;stroke-width:1.0;"/><polygon fill="#181818" points="53.66,706.95,52.3173,697.1931,51.0254,702.7004,45.518,701.4085,53.66,706.95" style="stroke:#181818;stroke-width:1.0;"/><text fill="#000000" font-family="sans-serif" font-size="13" lengthAdjust="spacing" textLength="18" x="49.59" y="590.4951">23.</text><text fill="#000000" font-family="sans-serif" font-size="13" lengthAdjust="spacing" textLength="58" x="31.59" y="606.8467">rechazar()</text></g><!--link BloqueadoRevision to DerivadoExperto--><g id="link_BloqueadoRevision_DerivadoExperto"><path d="M161.29,473.19 C162.24,499.55 163.7332,540.7039 164.6832,566.9739 " fill="none" id="BloqueadoRevision-to-DerivadoExperto" style="stroke:#181818;stroke-width:1.0;"/><polygon fill="#181818" points="164.9,572.97,168.5721,563.8313,164.7193,567.9733,160.5774,564.1204,164.9,572.97" style="stroke:#181818;stroke-width:1.0;"/><text fill="#000000" font-family="sans-serif" font-size="13" lengthAdjust="spacing" textLength="18" x="181.09" y="520.4951">23.</text><text fill="#000000" font-family="sans-serif" font-size="13" lengthAdjust="spacing" textLength="45" x="169.59" y="536.8467">derivar()</text></g><!--link DerivadoExperto to Confirmado--><g id="link_DerivadoExperto_Confirmado"><path d="M160.37,613.07 C156.6,631.26 154.23,658.56 167.59,677 C189.59,707.37 226.106,718.1919 258.146,722.6019 " fill="none" id="DerivadoExperto-to-Confirmado" style="stroke:#181818;stroke-width:1.0;"/><polygon fill="#181818" points="264.09,723.42,255.7195,718.2302,259.1367,722.7382,254.6286,726.1554,264.09,723.42" style="stroke:#181818;stroke-width:1.0;"/><text fill="#000000" font-family="sans-serif" font-size="13" lengthAdjust="spacing" textLength="18" x="214.59" y="657.4951">67.</text><text fill="#000000" font-family="sans-serif" font-size="13" lengthAdjust="spacing" textLength="110" x="172.59" y="673.8467">confirmarDerivado()</text></g><!--link DerivadoExperto to Rechazado--><g id="link_DerivadoExperto_Rechazado"><path d="M107.9,608.67 C90.66,616.04 73.68,626.95 63.59,643 C51.54,662.16 53.8536,683.2427 58.6336,701.1627 " fill="none" id="DerivadoExperto-to-Rechazado" style="stroke:#181818;stroke-width:1.0;"/><polygon fill="#181818" points="60.18,706.96,61.7253,697.2331,58.8914,702.1289,53.9956,699.295,60.18,706.96" style="stroke:#181818;stroke-width:1.0;"/><text fill="#000000" font-family="sans-serif" font-size="13" lengthAdjust="spacing" textLength="18" x="84.59" y="657.4951">67.</text><text fill="#000000" font-family="sans-serif" font-size="13" lengthAdjust="spacing" textLength="58" x="68.59" y="673.8467">rechazar()</text></g><!--link Confirmado to PendienteCierre--><g id="link_Confirmado_PendienteCierre"><path d="M301.54,747.21 C298.72,764.3 296.45,789.81 302.59,811 C305.67,821.64 308.3785,827.2722 314.3985,835.8322 " fill="none" id="Confirmado-to-PendienteCierre" style="stroke:#181818;stroke-width:1.0;"/><polygon fill="#181818" points="317.85,840.74,315.9446,831.0772,314.9737,836.6501,309.4008,835.6793,317.85,840.74" style="stroke:#181818;stroke-width:1.0;"/><text fill="#000000" font-family="sans-serif" font-size="13" lengthAdjust="spacing" textLength="18" x="344.09" y="791.4951">23.</text><text fill="#000000" font-family="sans-serif" font-size="13" lengthAdjust="spacing" textLength="99" x="307.59" y="807.8467">pendienteCerrar()</text></g><!--link AutoConfirmado to PendienteCierre--><g id="link_AutoConfirmado_PendienteCierre"><path d="M544.79,235.71 C545.08,265.75 545.59,325.67 545.59,376.5 C545.59,376.5 545.59,376.5 545.59,661 C545.59,750.98 448.2569,809.6238 385.8269,838.4638 " fill="none" id="AutoConfirmado-to-PendienteCierre" style="stroke:#181818;stroke-width:1.0;"/><polygon fill="#181818" points="380.38,840.98,390.2278,840.8369,384.9191,838.8831,386.8728,833.5744,380.38,840.98" style="stroke:#181818;stroke-width:1.0;"/><text fill="#000000" font-family="sans-serif" font-size="13" lengthAdjust="spacing" textLength="18" x="589.09" y="520.4951">24.</text><text fill="#000000" font-family="sans-serif" font-size="13" lengthAdjust="spacing" textLength="99" x="550.59" y="536.8467">pendienteCerrar()</text></g><!--link PendienteCierre to Cerrado--><g id="link_PendienteCierre_Cerrado"><path d="M333.59,881.19 C333.59,906.22 333.59,943.75 333.59,968.78 " fill="none" id="PendienteCierre-to-Cerrado" style="stroke:#181818;stroke-width:1.0;"/><polygon fill="#181818" points="333.59,974.78,337.59,965.78,333.59,969.78,329.59,965.78,333.59,974.78" style="stroke:#181818;stroke-width:1.0;"/><text fill="#000000" font-family="sans-serif" font-size="13" lengthAdjust="spacing" textLength="18" x="346.09" y="925.4951">39.</text><text fill="#000000" font-family="sans-serif" font-size="13" lengthAdjust="spacing" textLength="41" x="338.59" y="941.8467">cerrar()</text></g><!--link Cerrado to *end*--><g id="link_Cerrado_*end*"><path d="M333.59,1015.09 C333.59,1033.66 333.59,1055.17 333.59,1069.87 " fill="none" id="Cerrado-to-*end*" style="stroke:#181818;stroke-width:1.0;"/><polygon fill="#181818" points="333.59,1075.87,337.59,1066.87,333.59,1070.87,329.59,1066.87,333.59,1075.87" style="stroke:#181818;stroke-width:1.0;"/></g><!--link EventoSinRevision to *end*--><g id="link_EventoSinRevision_*end*"><path d="M432.15,543.09 C448.72,568.35 474.59,614.85 474.59,659 C474.59,659 474.59,659 474.59,996 C474.59,1057.57 383.8092,1077.8988 350.5692,1083.4088 " fill="none" id="EventoSinRevision-to-*end*" style="stroke:#181818;stroke-width:1.0;"/><polygon fill="#181818" points="344.65,1084.39,354.183,1086.8644,349.5827,1083.5723,352.8747,1078.9721,344.65,1084.39" style="stroke:#181818;stroke-width:1.0;"/></g><!--link Rechazado to *end*--><g id="link_Rechazado_*end*"><path d="M80.95,747.25 C130.55,813.77 289.9827,1027.5305 323.8227,1072.9005 " fill="none" id="Rechazado-to-*end*" style="stroke:#181818;stroke-width:1.0;"/><polygon fill="#181818" points="327.41,1077.71,325.2354,1068.1042,324.4206,1073.7021,318.8228,1072.8872,327.41,1077.71" style="stroke:#181818;stroke-width:1.0;"/></g><!--SRC=[ZPFFRjf04CRlVeevDQ4ILiMVKAo0H85ZgmgaN2Y7ZJq98-5TkhkcVzwffpv2NYopQsCCB4gEdlb-ttupkzvGXe3vplw134sgQMT9oUXcAemoN8B2g2IwwNGJME0p6Qk51escs5gHAIVGk2T3B_ybv48MOilYNbECUvHMWNdvPt9A5RVx2NnL6JrH6cmF4fZ8OXlgTJydy83w13Lrtu0ehCjaCNNf30F31AQeWpdk1k-OoMr0rYnvb8kQzYoDejN7TRizdl2niyEfa42d5yCF2H9_tRPWbOjdIRR8bamhk8TU_6dT0ATAFf7EtoR7en8zEOrDlgFCYFFXmgTMadsWq_T6VX2XsOm_LfRufjNSx52BKJydkOReWcR7Brlriq1sFzGuMDyvF9ODvxVILMz9eoMvvWTe-jzx_w3zt6zpIR9XFuYlcNzJb-Pb-DDD03j3CFaRcwYINg3iTxmRzkd6JAPLHSz8yxdgjXK45vXkn5_FLQ0kA_eACAkUrFmtHx97h7ngZZfJdAMx6_WfZ_4gTH1ifAkuHhgZQ_DjJOd_8lHRSFfTNVS_5sEdJpc8zk8WUIRqz-YRBbztMCvr45SDB-9_ABfuItMd7l9GUGK0]--></g></svg>